<svg width="138" height="27" viewBox="0 0 138 27" fill="none" xmlns="http://www.w3.org/2000/svg">
<path d="M0.44 26H10.916V22.4H4.4V0.799998H0.44V26ZM12.7095 26H16.6695V0.799998H12.7095V26ZM19.061 6.848C19.061 14.048 26.801 15.02 26.801 20.204C26.801 22.004 26.009 22.652 24.749 22.652C23.489 22.652 22.697 22.004 22.697 20.204V18.224H18.953V19.952C18.953 23.984 20.969 26.288 24.857 26.288C28.745 26.288 30.761 23.984 30.761 19.952C30.761 12.752 23.021 11.78 23.021 6.596C23.021 4.796 23.741 4.112 25.001 4.112C26.261 4.112 26.981 4.796 26.981 6.596V7.82H30.725V6.848C30.725 2.816 28.745 0.512 24.893 0.512C21.041 0.512 19.061 2.816 19.061 6.848ZM31.9498 4.4H36.0898V26H40.0498V4.4H44.1898V0.799998H31.9498V4.4ZM55.2283 6.596C55.2283 4.796 56.0203 4.112 57.2803 4.112C58.5403 4.112 59.3323 4.796 59.3323 6.596V20.204C59.3323 22.004 58.5403 22.688 57.2803 22.688C56.0203 22.688 55.2283 22.004 55.2283 20.204V6.596ZM51.2683 19.952C51.2683 23.984 53.3923 26.288 57.2803 26.288C61.1683 26.288 63.2923 23.984 63.2923 19.952V6.848C63.2923 2.816 61.1683 0.512 57.2803 0.512C53.3923 0.512 51.2683 2.816 51.2683 6.848V19.952ZM69.8258 4.4H76.3418V0.799998H65.8658V26H69.8258V15.596H74.9378V11.996H69.8258V4.4ZM82.7506 4.4H86.8906V26H90.8506V4.4H94.9906V0.799998H82.7506V4.4ZM100.439 6.596C100.439 4.796 101.231 4.112 102.491 4.112C103.751 4.112 104.543 4.796 104.543 6.596V20.204C104.543 22.004 103.751 22.688 102.491 22.688C101.231 22.688 100.439 22.004 100.439 20.204V6.596ZM96.4793 19.952C96.4793 23.984 98.6033 26.288 102.491 26.288C106.379 26.288 108.503 23.984 108.503 19.952V6.848C108.503 2.816 106.379 0.512 102.491 0.512C98.6033 0.512 96.4793 2.816 96.4793 6.848V19.952ZM111.077 26H117.341C121.301 26 123.245 23.804 123.245 19.772V7.028C123.245 2.996 121.301 0.799998 117.341 0.799998H111.077V26ZM117.269 4.4C118.529 4.4 119.285 5.048 119.285 6.848V19.952C119.285 21.752 118.529 22.4 117.269 22.4H115.037V4.4H117.269ZM129.408 6.596C129.408 4.796 130.2 4.112 131.46 4.112C132.72 4.112 133.512 4.796 133.512 6.596V20.204C133.512 22.004 132.72 22.688 131.46 22.688C130.2 22.688 129.408 22.004 129.408 20.204V6.596ZM125.448 19.952C125.448 23.984 127.572 26.288 131.46 26.288C135.348 26.288 137.472 23.984 137.472 19.952V6.848C137.472 2.816 135.348 0.512 131.46 0.512C127.572 0.512 125.448 2.816 125.448 6.848V19.952Z" fill="#F76C6A"/>
</svg>
